<?xml version="1.0" standalone="no"?>
<!DOCTYPE svg PUBLIC "-//W3C//DTD SVG 20010904//EN"
 "http://www.w3.org/TR/2001/REC-SVG-20010904/DTD/svg10.dtd">
<svg version="1.0" xmlns="http://www.w3.org/2000/svg"
 width="118.000000pt" height="118.000000pt" viewBox="0 0 118.000000 118.000000"
 preserveAspectRatio="xMidYMid meet">
<metadata>
Created by potrace 1.11, written by Peter Selinger 2001-2013
</metadata>
<g transform="translate(0.000000,118.000000) scale(0.100000,-0.100000)"
fill="#000000" stroke="none">
<path d="M504 1147 c-10 -6 -33 -11 -51 -12 -39 -3 -62 -18 -124 -79 -64 -62
-92 -111 -95 -163 -1 -23 -12 -68 -23 -98 -15 -39 -19 -68 -15 -94 6 -35 4
-39 -19 -45 -14 -3 -29 -16 -32 -28 -15 -46 -1 -195 21 -219 8 -8 14 -20 14
-25 1 -16 39 -55 52 -53 30 4 38 -4 69 -71 17 -39 38 -70 45 -70 7 0 14 -4 16
-10 5 -15 110 -120 132 -132 11 -6 49 -11 85 -12 85 -1 151 30 204 99 21 28
43 59 48 70 5 11 21 36 35 55 21 29 32 35 61 35 25 0 37 5 38 16 2 9 14 33 27
55 33 52 57 117 54 140 -2 10 0 31 5 46 6 23 3 31 -19 47 -25 18 -26 24 -28
107 -2 99 -23 161 -69 203 -14 13 -29 36 -32 50 -5 27 -101 111 -126 111 -7 0
-32 16 -54 35 -27 23 -55 37 -84 41 -75 11 -117 11 -135 1z"/>
</g>
</svg>
